<svg xmlns="http://www.w3.org/2000/svg" xmlns:xlink="http://www.w3.org/1999/xlink" version="1.1" width="256" height="256" viewBox="0 0 256 256" xml:space="preserve">

<defs>
</defs>
<g style="stroke: none; stroke-width: 0; stroke-dasharray: none; stroke-linecap: butt; stroke-linejoin: miter; stroke-miterlimit: 10; fill: none; fill-rule: nonzero; opacity: 1;" transform="translate(1.4065934065934016 1.4065934065934016) scale(2.81 2.81)" >
	<path d="M 87 14.18 H 30.6 c -1.657 0 -3 -1.343 -3 -3 s 1.343 -3 3 -3 H 87 c 1.657 0 3 1.343 3 3 S 88.657 14.18 87 14.18 z" style="stroke: none; stroke-width: 1; stroke-dasharray: none; stroke-linecap: butt; stroke-linejoin: miter; stroke-miterlimit: 10; fill: rgb(109,193,35); fill-rule: nonzero; opacity: 1;" transform=" matrix(1 0 0 1 0 0) " stroke-linecap="round" />
	<path d="M 87 42.94 H 30.6 c -1.657 0 -3 -1.343 -3 -3 s 1.343 -3 3 -3 H 87 c 1.657 0 3 1.343 3 3 S 88.657 42.94 87 42.94 z" style="stroke: none; stroke-width: 1; stroke-dasharray: none; stroke-linecap: butt; stroke-linejoin: miter; stroke-miterlimit: 10; fill: rgb(191,73,37); fill-rule: nonzero; opacity: 1;" transform=" matrix(1 0 0 1 0 0) " stroke-linecap="round" />
	<path d="M 87 71.699 H 30.6 c -1.657 0 -3 -1.343 -3 -3 s 1.343 -3 3 -3 H 87 c 1.657 0 3 1.343 3 3 S 88.657 71.699 87 71.699 z" style="stroke: none; stroke-width: 1; stroke-dasharray: none; stroke-linecap: butt; stroke-linejoin: miter; stroke-miterlimit: 10; fill: rgb(191,73,37); fill-rule: nonzero; opacity: 1;" transform=" matrix(1 0 0 1 0 0) " stroke-linecap="round" />
	<path d="M 10.844 27.083 C 4.864 27.083 0 22.219 0 16.24 C 0 10.261 4.864 5.396 10.844 5.396 c 5.979 0 10.843 4.864 10.843 10.844 C 21.687 22.219 16.823 27.083 10.844 27.083 z" style="stroke: none; stroke-width: 1; stroke-dasharray: none; stroke-linecap: butt; stroke-linejoin: miter; stroke-miterlimit: 10; fill: rgb(109,193,35); fill-rule: nonzero; opacity: 1;" transform=" matrix(1 0 0 1 0 0) " stroke-linecap="round" />
	<path d="M 10.844 55.844 C 4.864 55.844 0 50.979 0 45 s 4.864 -10.844 10.844 -10.844 c 5.979 0 10.843 4.864 10.843 10.844 S 16.823 55.844 10.844 55.844 z" style="stroke: none; stroke-width: 1; stroke-dasharray: none; stroke-linecap: butt; stroke-linejoin: miter; stroke-miterlimit: 10; fill: rgb(191,73,37); fill-rule: nonzero; opacity: 1;" transform=" matrix(1 0 0 1 0 0) " stroke-linecap="round" />
	<path d="M 10.844 84.604 C 4.864 84.604 0 79.739 0 73.76 s 4.864 -10.844 10.844 -10.844 c 5.979 0 10.843 4.864 10.843 10.844 S 16.823 84.604 10.844 84.604 z" style="stroke: none; stroke-width: 1; stroke-dasharray: none; stroke-linecap: butt; stroke-linejoin: miter; stroke-miterlimit: 10; fill: rgb(191,73,37); fill-rule: nonzero; opacity: 1;" transform=" matrix(1 0 0 1 0 0) " stroke-linecap="round" />
	<path d="M 61.699 24.3 H 30.6 c -1.657 0 -3 -1.343 -3 -3 s 1.343 -3 3 -3 h 31.1 c 1.657 0 3 1.343 3 3 S 63.356 24.3 61.699 24.3 z" style="stroke: none; stroke-width: 1; stroke-dasharray: none; stroke-linecap: butt; stroke-linejoin: miter; stroke-miterlimit: 10; fill: rgb(109,193,35); fill-rule: nonzero; opacity: 1;" transform=" matrix(1 0 0 1 0 0) " stroke-linecap="round" />
	<path d="M 61.699 53.061 H 30.6 c -1.657 0 -3 -1.343 -3 -3 s 1.343 -3 3 -3 h 31.1 c 1.657 0 3 1.343 3 3 S 63.356 53.061 61.699 53.061 z" style="stroke: none; stroke-width: 1; stroke-dasharray: none; stroke-linecap: butt; stroke-linejoin: miter; stroke-miterlimit: 10; fill: rgb(191,73,37); fill-rule: nonzero; opacity: 1;" transform=" matrix(1 0 0 1 0 0) " stroke-linecap="round" />
	<path d="M 61.699 81.82 H 30.6 c -1.657 0 -3 -1.343 -3 -3 s 1.343 -3 3 -3 h 31.1 c 1.657 0 3 1.343 3 3 S 63.356 81.82 61.699 81.82 z" style="stroke: none; stroke-width: 1; stroke-dasharray: none; stroke-linecap: butt; stroke-linejoin: miter; stroke-miterlimit: 10; fill: rgb(191,73,37); fill-rule: nonzero; opacity: 1;" transform=" matrix(1 0 0 1 0 0) " stroke-linecap="round" />
</g>
</svg>