<svg xmlns="http://www.w3.org/2000/svg" xmlns:xlink="http://www.w3.org/1999/xlink" version="1.1" width="256" height="256" viewBox="0 0 256 256" xml:space="preserve">

<defs>
</defs>
<g style="stroke: none; stroke-width: 0; stroke-dasharray: none; stroke-linecap: butt; stroke-linejoin: miter; stroke-miterlimit: 10; fill: none; fill-rule: nonzero; opacity: 1;" transform="translate(1.4065934065934016 1.4065934065934016) scale(2.81 2.81)" >
	<path d="M 58.526 39.327 l -1.514 0.649 c -1.289 0.552 -2.806 0.263 -3.749 -0.775 c -0.757 -0.834 -1.561 -1.615 -2.406 -2.343 c -1.057 -0.911 -1.386 -2.411 -0.868 -3.706 l 0.62 -1.55 c 0.272 -0.679 -0.059 -1.45 -0.738 -1.721 l -10.269 -4.107 c -0.679 -0.272 -1.45 0.059 -1.721 0.738 l -0.62 1.55 c -0.518 1.295 -1.791 2.155 -3.185 2.085 c -1.113 -0.055 -2.234 -0.044 -3.358 0.037 c -1.398 0.101 -2.697 -0.736 -3.249 -2.024 l -0.649 -1.514 c -0.288 -0.672 -1.067 -0.983 -1.739 -0.695 l -10.166 4.357 c -0.672 0.288 -0.983 1.067 -0.695 1.739 l 0.649 1.514 c 0.552 1.289 0.263 2.806 -0.775 3.749 c -0.834 0.757 -1.615 1.561 -2.343 2.406 c -0.911 1.057 -2.411 1.386 -3.707 0.868 l -1.55 -0.62 c -0.679 -0.272 -1.45 0.059 -1.721 0.738 L 0.667 50.969 c -0.272 0.679 0.059 1.45 0.738 1.721 l 1.55 0.62 c 1.295 0.518 2.155 1.791 2.085 3.185 c -0.055 1.113 -0.044 2.234 0.037 3.358 c 0.101 1.398 -0.736 2.697 -2.024 3.249 L 1.54 63.751 c -0.672 0.288 -0.983 1.066 -0.695 1.739 l 4.357 10.166 c 0.288 0.672 1.066 0.983 1.739 0.695 l 1.514 -0.649 c 1.289 -0.552 2.806 -0.263 3.749 0.775 c 0.757 0.834 1.561 1.615 2.406 2.343 c 1.057 0.911 1.386 2.411 0.868 3.707 l -0.62 1.55 c -0.272 0.679 0.059 1.45 0.738 1.721 l 10.269 4.107 c 0.679 0.272 1.45 -0.059 1.721 -0.738 l 0.62 -1.55 c 0.518 -1.295 1.792 -2.155 3.185 -2.085 c 1.113 0.055 2.234 0.044 3.358 -0.037 c 1.398 -0.101 2.697 0.736 3.249 2.024 l 0.649 1.514 c 0.288 0.672 1.066 0.984 1.739 0.695 L 50.55 85.37 c 0.672 -0.288 0.983 -1.067 0.695 -1.739 l -0.649 -1.514 c -0.552 -1.289 -0.263 -2.806 0.775 -3.749 c 0.834 -0.757 1.615 -1.561 2.343 -2.406 c 0.911 -1.057 2.411 -1.386 3.706 -0.868 l 1.55 0.62 c 0.679 0.272 1.45 -0.059 1.721 -0.738 l 4.107 -10.269 c 0.272 -0.679 -0.059 -1.45 -0.738 -1.721 l -1.55 -0.62 c -1.295 -0.518 -2.155 -1.792 -2.085 -3.185 c 0.055 -1.113 0.044 -2.234 -0.037 -3.358 c -0.101 -1.398 0.736 -2.697 2.024 -3.249 l 1.514 -0.649 c 0.672 -0.288 0.983 -1.066 0.695 -1.739 l -4.357 -10.166 C 59.977 39.35 59.198 39.039 58.526 39.327 z M 48.909 52.412 c 2.659 7.858 -0.86 16.655 -8.204 20.512 c -9.336 4.903 -20.769 0.33 -24.148 -9.658 c -2.658 -7.858 0.86 -16.655 8.204 -20.512 C 34.097 37.85 45.53 42.423 48.909 52.412 z" style="stroke: none; stroke-width: 1; stroke-dasharray: none; stroke-linecap: butt; stroke-linejoin: miter; stroke-miterlimit: 10; fill: rgb(255,100,100); fill-rule: nonzero; opacity: 1;" transform=" matrix(1 0 0 1 0 0) " stroke-linecap="round" />
	<path d="M 88.43 19.203 h -1.242 c -1.057 0 -2.023 -0.651 -2.368 -1.65 c -0.277 -0.803 -0.602 -1.583 -0.971 -2.338 c -0.462 -0.945 -0.245 -2.083 0.499 -2.826 l 0.89 -0.89 c 0.39 -0.39 0.39 -1.022 0 -1.412 L 79.342 4.19 c -0.39 -0.39 -1.022 -0.39 -1.412 0 l -0.89 0.89 c -0.744 0.744 -1.882 0.961 -2.826 0.499 c -0.755 -0.369 -1.535 -0.694 -2.338 -0.971 c -0.999 -0.345 -1.65 -1.311 -1.65 -2.368 V 0.998 C 70.225 0.447 69.778 0 69.227 0 h -8.339 c -0.551 0 -0.998 0.447 -0.998 0.998 V 2.24 c 0 1.057 -0.651 2.023 -1.65 2.368 c -0.803 0.277 -1.583 0.602 -2.338 0.971 c -0.945 0.462 -2.083 0.245 -2.826 -0.499 l -0.89 -0.89 c -0.39 -0.39 -1.022 -0.39 -1.412 0 l -5.897 5.897 c -0.39 0.39 -0.39 1.022 0 1.412 l 0.89 0.89 c 0.744 0.744 0.961 1.882 0.499 2.826 c -0.369 0.755 -0.694 1.535 -0.971 2.338 c -0.345 0.999 -1.311 1.65 -2.368 1.65 h -1.242 c -0.551 0 -0.998 0.447 -0.998 0.998 v 8.339 c 0 0.551 0.447 0.998 0.998 0.998 h 1.242 c 1.057 0 2.023 0.651 2.368 1.65 c 0.277 0.803 0.602 1.583 0.971 2.338 c 0.462 0.945 0.245 2.083 -0.499 2.826 l -0.89 0.89 c -0.39 0.39 -0.39 1.022 0 1.412 l 5.897 5.897 c 0.39 0.39 1.022 0.39 1.412 0 l 0.89 -0.89 c 0.744 -0.744 1.882 -0.961 2.826 -0.499 c 0.755 0.369 1.535 0.694 2.338 0.971 c 0.999 0.345 1.65 1.311 1.65 2.368 v 1.242 c 0 0.551 0.447 0.998 0.998 0.998 h 8.339 c 0.551 0 0.998 -0.447 0.998 -0.998 v -1.242 c 0 -1.057 0.651 -2.023 1.65 -2.368 c 0.803 -0.277 1.583 -0.602 2.338 -0.971 c 0.945 -0.462 2.083 -0.245 2.826 0.499 l 0.89 0.89 c 0.39 0.39 1.022 0.39 1.412 0 l 5.897 -5.897 c 0.39 -0.39 0.39 -1.022 0 -1.412 l -0.89 -0.89 c -0.744 -0.744 -0.961 -1.882 -0.499 -2.826 c 0.369 -0.755 0.694 -1.535 0.971 -2.338 c 0.345 -0.999 1.311 -1.65 2.368 -1.65 h 1.242 c 0.551 0 0.998 -0.447 0.998 -0.998 v -8.339 C 89.428 19.65 88.981 19.203 88.43 19.203 z M 77.879 25.414 c -0.492 6.235 -5.543 11.286 -11.778 11.778 c -7.926 0.625 -14.491 -5.94 -13.866 -13.866 c 0.492 -6.235 5.543 -11.286 11.778 -11.778 C 71.939 10.924 78.504 17.489 77.879 25.414 z" style="stroke: none; stroke-width: 1; stroke-dasharray: none; stroke-linecap: butt; stroke-linejoin: miter; stroke-miterlimit: 10; fill: rgb(0,210,255); fill-rule: nonzero; opacity: 1;" transform=" matrix(1 0 0 1 0 0) " stroke-linecap="round" />
</g>
</svg>