<svg xmlns="http://www.w3.org/2000/svg" xmlns:xlink="http://www.w3.org/1999/xlink" version="1.1" width="256" height="256" viewBox="0 0 256 256" xml:space="preserve">

<defs>
</defs>
<g style="stroke: none; stroke-width: 0; stroke-dasharray: none; stroke-linecap: butt; stroke-linejoin: miter; stroke-miterlimit: 10; fill: none; fill-rule: nonzero; opacity: 1;" transform="translate(1.4065934065934016 1.4065934065934016) scale(2.81 2.81)" >
	<linearGradient id="SVGID_1" gradientUnits="userSpaceOnUse" x1="45" y1="84.7883" x2="45" y2="4.2607">
<stop offset="0%" style="stop-color:rgb(33,97,172);stop-opacity: 1"/>
<stop offset="100%" style="stop-color:rgb(43,127,226);stop-opacity: 1"/>
</linearGradient>
<circle cx="45" cy="45" r="45" style="stroke: none; stroke-width: 1; stroke-dasharray: none; stroke-linecap: butt; stroke-linejoin: miter; stroke-miterlimit: 10; fill: url(#SVGID_1); fill-rule: nonzero; opacity: 1;" transform="  matrix(1 0 0 1 0 0) "/>
	<path d="M 45.823 55.921 h -5.529 L 37.994 70 H 31.16 l 2.301 -14.079 h -7.624 v -6.285 h 8.654 l 1.511 -9.066 h -7.589 v -6.284 h 8.62 L 39.402 20 h 6.8 l -2.335 14.286 h 5.528 L 51.765 20 h 6.832 l -2.369 14.286 h 7.934 v 6.284 h -8.965 l -1.51 9.066 h 7.863 v 6.285 h -8.894 L 50.357 70 h -6.834 L 45.823 55.921 z M 41.325 49.636 h 5.529 l 1.512 -9.066 h -5.53 L 41.325 49.636 z" style="stroke: none; stroke-width: 1; stroke-dasharray: none; stroke-linecap: butt; stroke-linejoin: miter; stroke-miterlimit: 10; fill: rgb(255,255,255); fill-rule: nonzero; opacity: 1;" transform=" matrix(1 0 0 1 0 0) " stroke-linecap="round" />
</g>
</svg>